# xmcd CD database file
#
# Track frame offsets:
#	150
#	17989
#	34092
#	58587
#	76166
#	80457
#	100108
#	113810
#	128189
#	143201
#	161656
#
# Disc length: 2449 seconds
#
# Revision: 0
# Processed by: cddbd v1.5.1PL2 Copyright (c) Steve Scherf et al.
# Submitted via: CDex 1.51
#
DISCID=88098f0b
DTITLE=ピンクフラミンゴMG - FOLLOW　the PORKCHOP
DYEAR=2005
DGENRE=Rock
TTITLE0=PORKCHOP
TTITLE1=D.O.G
TTITLE2=トッキュー
TTITLE3=AMIGO
TTITLE4=overseas
TTITLE5=カリカリシック
TTITLE6=sorry
TTITLE7=MgMv
TTITLE8=Madmade
TTITLE9=ショボーン
TTITLE10=BAMBOO
EXTD=YEAR: 2005
EXTT0=
EXTT1=
EXTT2=
EXTT3=
EXTT4=
EXTT5=
EXTT6=
EXTT7=
EXTT8=
EXTT9=
EXTT10=
PLAYORDER=
